# xmcd
#
# Track frame offsets:
#	150
#	2437
#	24544
#	47136
#	66663
#	90388
#	117111
#	138953
#	159138
#	171957
#	192497
#	209928
#
# Disc length: 3235 seconds
#
# Revision: 1
# Processed by: cddbd v1.5.1PL2 Copyright (c) Steve Scherf et al.
# Submitted via: EasyCDDAExtractor 9.0.0.1
#
DISCID=a30ca10c
DTITLE=Deep Purple - Rock Zottegem 14-07-06 Disc 1
DYEAR=2006
DGENRE=Hard Rock
TTITLE0=Intro
TTITLE1=PIctures Of Home
TTITLE2=Things I Never Said
TTITLE3=Hush
TTITLE4=Strange Kind Of Woman
TTITLE5=Rapture Of The Deep
TTITLE6=Wrong Man
TTITLE7=Steve's Solo
TTITLE8=The Well Dressed Guitar
TTITLE9=Kiss Tomorrow Goodbye
TTITLE10=When A Blind Man Cries
TTITLE11=Lazy
EXTD=
EXTT0=
EXTT1=
EXTT2=
EXTT3=
EXTT4=
EXTT5=
EXTT6=
EXTT7=
EXTT8=
EXTT9=
EXTT10=
EXTT11=
PLAYORDER=
